<svg class="diagram-root" style="background: #f5f6f6" xmlns="http://www.w3.org/2000/svg" xmlns:xlink="http://www.w3.org/1999/xlink"><style>.diagram-root { font-family: "Helvetica Neue", sans-serif; font-size: 12px; } .t { overflow: visible; } .t-bg { y: 40; fill: #fff;   } .th { fill: #005aa0;   } .tht { fill: #fff; font-size: 14px;  } .tf { fill: #323c46; overflow: visible; } .tf.pk { fill: #005aa0; font-weight: bold; } .tf.fk { font-weight: bold; } .ty { fill: #adb1b5; font-weight: normal; text-anchor: end; } .r { fill: transparent; stroke: #c3c3c3; stroke-width: 1; } .l { stroke: 1; } .i { fill: #c2c7ce; stroke: #c2c7ce; } .i.ix { fill: #afb3b6; stroke: #000; } .fa { fill: transparent; overflow: visible; } .fa .bg.hover { fill: #f7f7f7; } .c { cy: 12; r: 4; stroke: #d2d2dc; fill: #d2d2dc; } .hr { fill: transparent; stroke: #323c46; stroke-opacity: 0.035; stroke-width: 13; } .dc { stroke: #fa5a3c; fill: #fa5a3c; } .x { stroke: white; stroke-width: 1; } .hl .th { fill: #1b9bff; } .hl .tht {  } .fhl .bg { fill: #e7f4ff; } .fhls .bg {  } .r.hl { stroke: #1b9bff; } .dim { opacity: 0.25; }</style><g class="drawing-wrapper" transform="translate(104, 19) scale(1,1)"><g class="rs"><path d="M 489 119 m -1, 0 a 1,1 0 1,0 2,0 a 1,1 0 1,0 -2,0 M 489 119 m -0.5, 0 a 0.5,0.5 0 1,0 1,0 a 0.5,0.5 0 1,0 -1,0  M489 119 L489 119 501 119 M 489 125 m -1, 0 a 1,1 0 1,0 2,0 a 1,1 0 1,0 -2,0 M 489 125 m -0.5, 0 a 0.5,0.5 0 1,0 1,0 a 0.5,0.5 0 1,0 -1,0  M489 125 L489 125 496 119 489 113 M 489 113 m -1, 0 a 1,1 0 1,0 2,0 a 1,1 0 1,0 -2,0 M 489 113 m -0.5, 0 a 0.5,0.5 0 1,0 1,0 a 0.5,0.5 0 1,0 -1,0  M501 119 Q 516.5 119, 532 131 T 563 143 M 575 143 m -1, 0 a 1,1 0 1,0 2,0 a 1,1 0 1,0 -2,0 M 575 143 m -0.5, 0 a 0.5,0.5 0 1,0 1,0 a 0.5,0.5 0 1,0 -1,0  M575 143 L575 143 563 143 M569 149 L569 149 569 137" id="h4205535480" class="r"></path><path d="M 90 220 m -1, 0 a 1,1 0 1,0 2,0 a 1,1 0 1,0 -2,0 M 90 220 m -0.5, 0 a 0.5,0.5 0 1,0 1,0 a 0.5,0.5 0 1,0 -1,0  M90 220 L90 220 102 220 M 90 226 m -1, 0 a 1,1 0 1,0 2,0 a 1,1 0 1,0 -2,0 M 90 226 m -0.5, 0 a 0.5,0.5 0 1,0 1,0 a 0.5,0.5 0 1,0 -1,0  M90 226 L90 226 97 220 90 214 M 90 214 m -1, 0 a 1,1 0 1,0 2,0 a 1,1 0 1,0 -2,0 M 90 214 m -0.5, 0 a 0.5,0.5 0 1,0 1,0 a 0.5,0.5 0 1,0 -1,0  M102 220 Q 161.75 220, 221.5 182 T 341 144 M 353 144 m -1, 0 a 1,1 0 1,0 2,0 a 1,1 0 1,0 -2,0 M 353 144 m -0.5, 0 a 0.5,0.5 0 1,0 1,0 a 0.5,0.5 0 1,0 -1,0  M353 144 L353 144 341 144 M347 150 L347 150 347 138" id="h2632740327" class="r"></path><path d="M 459 316 m -1, 0 a 1,1 0 1,0 2,0 a 1,1 0 1,0 -2,0 M 459 316 m -0.5, 0 a 0.5,0.5 0 1,0 1,0 a 0.5,0.5 0 1,0 -1,0  M459 316 L459 316 471 316 M 459 322 m -1, 0 a 1,1 0 1,0 2,0 a 1,1 0 1,0 -2,0 M 459 322 m -0.5, 0 a 0.5,0.5 0 1,0 1,0 a 0.5,0.5 0 1,0 -1,0  M459 322 L459 322 466 316 459 310 M 459 310 m -1, 0 a 1,1 0 1,0 2,0 a 1,1 0 1,0 -2,0 M 459 310 m -0.5, 0 a 0.5,0.5 0 1,0 1,0 a 0.5,0.5 0 1,0 -1,0  M471 316 Q 491.25 316, 511.5 324.5 T 552 333 M 564 333 m -1, 0 a 1,1 0 1,0 2,0 a 1,1 0 1,0 -2,0 M 564 333 m -0.5, 0 a 0.5,0.5 0 1,0 1,0 a 0.5,0.5 0 1,0 -1,0  M564 333 L564 333 552 333 M558 339 L558 339 558 327" id="h1944513058" class="r"></path><path d="M 329 341 m -1, 0 a 1,1 0 1,0 2,0 a 1,1 0 1,0 -2,0 M 329 341 m -0.5, 0 a 0.5,0.5 0 1,0 1,0 a 0.5,0.5 0 1,0 -1,0  M329 341 L329 341 317 341 M 329 347 m -1, 0 a 1,1 0 1,0 2,0 a 1,1 0 1,0 -2,0 M 329 347 m -0.5, 0 a 0.5,0.5 0 1,0 1,0 a 0.5,0.5 0 1,0 -1,0  M329 347 L329 347 322 341 329 335 M 329 335 m -1, 0 a 1,1 0 1,0 2,0 a 1,1 0 1,0 -2,0 M 329 335 m -0.5, 0 a 0.5,0.5 0 1,0 1,0 a 0.5,0.5 0 1,0 -1,0  M317 341 Q 263.25 341, 209.5 293 T 102 245 M 90 245 m -1, 0 a 1,1 0 1,0 2,0 a 1,1 0 1,0 -2,0 M 90 245 m -0.5, 0 a 0.5,0.5 0 1,0 1,0 a 0.5,0.5 0 1,0 -1,0  M90 245 L90 245 102 245 M96 251 L96 251 96 239" id="h1206342206" class="r"></path></g><g class="hrs"></g><g class="ts"><svg width="136" height="150" x="575" y="11" id="h3434764567" class="t"><rect height="40" width="136" class="th"></rect><text x="13" y="25" class="tht">project</text><rect height="110" width="136" class="t-bg" y="40"></rect><text x="13" y="61" class="tf pk">id<tspan x="123" class="ty">int</tspan></text><path d="M7,14A2,2 0 0,1 5,12A2,2 0 0,1 7,10A2,2 0 0,1 9,12A2,2 0 0,1 7,14M12.65,10C11.83,7.67 9.61,6 7, 6A6, 6 0 0, 0 1, 12A6, 6 0 0, 0 7, 18C9.61, 18 11.83, 16.33 12.65, 14H17V18H21V14H23V10H12.65Z" class="i pk" transform="translate(85, 48) scale(0.65)"></path><text x="13" y="86" class="tf">name<tspan x="123" class="ty">varchar(50)</tspan></text><text x="13" y="111" class="tf">locked<tspan x="123" class="ty">bool</tspan></text><text x="13" y="136" class="tf">...</text></svg><svg width="136" height="150" x="353" y="12" id="h1251643890" class="t"><rect height="40" width="136" class="th"></rect><text x="13" y="25" class="tht">board</text><rect height="110" width="136" class="t-bg" y="40"></rect><text x="13" y="61" class="tf pk">id<tspan x="123" class="ty">int</tspan></text><path d="M7,14A2,2 0 0,1 5,12A2,2 0 0,1 7,10A2,2 0 0,1 9,12A2,2 0 0,1 7,14M12.65,10C11.83,7.67 9.61,6 7, 6A6, 6 0 0, 0 1, 12A6, 6 0 0, 0 7, 18C9.61, 18 11.83, 16.33 12.65, 14H17V18H21V14H23V10H12.65Z" class="i pk" transform="translate(85, 48) scale(0.65)"></path><text x="13" y="86" class="tf">name<tspan x="123" class="ty">varchar(50)</tspan></text><text x="13" y="111" class="tf fk">project_id<tspan x="123" class="ty">int</tspan></text><text x="13" y="136" class="tf">...</text></svg><svg width="172" height="250" x="-82" y="13" id="h303592293" class="t"><rect height="40" width="172" class="th"></rect><text x="13" y="25" class="tht">task</text><rect height="210" width="172" class="t-bg" y="40"></rect><text x="13" y="61" class="tf pk">id<tspan x="159" class="ty">int</tspan></text><path d="M7,14A2,2 0 0,1 5,12A2,2 0 0,1 7,10A2,2 0 0,1 9,12A2,2 0 0,1 7,14M12.65,10C11.83,7.67 9.61,6 7, 6A6, 6 0 0, 0 1, 12A6, 6 0 0, 0 7, 18C9.61, 18 11.83, 16.33 12.65, 14H17V18H21V14H23V10H12.65Z" class="i pk" transform="translate(121, 48) scale(0.65)"></path><text x="13" y="86" class="tf">name<tspan x="159" class="ty">varchar(50)</tspan></text><text x="13" y="111" class="tf">desc<tspan x="159" class="ty">varchar(512)</tspan></text><text x="13" y="136" class="tf">state<tspan x="159" class="ty">enum</tspan></text><text x="13" y="161" class="tf">progress<tspan x="159" class="ty">decimal(2,1)</tspan></text><text x="13" y="186" class="tf">finish_date<tspan x="159" class="ty">datetime?</tspan></text><text x="13" y="211" class="tf fk">board_id<tspan x="159" class="ty">int</tspan></text><text x="13" y="236" class="tf">...</text></svg><svg width="136" height="125" x="564" y="226" id="h3372114035" class="t"><rect height="40" width="136" class="th"></rect><text x="13" y="25" class="tht">calendar</text><rect height="85" width="136" class="t-bg" y="40"></rect><text x="13" y="61" class="tf pk">id<tspan x="123" class="ty">int</tspan></text><path d="M7,14A2,2 0 0,1 5,12A2,2 0 0,1 7,10A2,2 0 0,1 9,12A2,2 0 0,1 7,14M12.65,10C11.83,7.67 9.61,6 7, 6A6, 6 0 0, 0 1, 12A6, 6 0 0, 0 7, 18C9.61, 18 11.83, 16.33 12.65, 14H17V18H21V14H23V10H12.65Z" class="i pk" transform="translate(85, 48) scale(0.65)"></path><text x="13" y="86" class="tf">name<tspan x="123" class="ty">varchar(50)</tspan></text><text x="13" y="111" class="tf">...</text></svg><svg width="130" height="125" x="329" y="234" id="h3562053045" class="t"><rect height="40" width="130" class="th"></rect><text x="13" y="25" class="tht">calendar_task</text><rect height="85" width="130" class="t-bg" y="40"></rect><text x="13" y="61" class="tf pk">id<tspan x="117" class="ty">int</tspan></text><path d="M7,14A2,2 0 0,1 5,12A2,2 0 0,1 7,10A2,2 0 0,1 9,12A2,2 0 0,1 7,14M12.65,10C11.83,7.67 9.61,6 7, 6A6, 6 0 0, 0 1, 12A6, 6 0 0, 0 7, 18C9.61, 18 11.83, 16.33 12.65, 14H17V18H21V14H23V10H12.65Z" class="i pk" transform="translate(79, 48) scale(0.65)"></path><text x="13" y="86" class="tf fk">calendar_id<tspan x="117" class="ty">int</tspan></text><text x="13" y="111" class="tf fk">task_id<tspan x="117" class="ty">int</tspan></text></svg></g></g><text class="qdbd-link" x="10" y="20">www.quickdatabasediagrams.com</text></svg>